<svg width="56" height="31" viewBox="0 0 56 31" fill="none" xmlns="http://www.w3.org/2000/svg">
<path d="M37.1567 24.6528H34.7389V23.0775H36.7714C36.9523 23.0775 37.0637 22.9609 37.0637 22.7761V22.6516C37.0637 22.4708 36.9483 22.3568 36.7714 22.3568H34.7389V20.8379H37.0637C37.2458 20.8379 37.3638 20.7226 37.3638 20.5443V20.4198C37.3638 20.2324 37.2484 20.1158 37.0637 20.1158H34.3025C34.1164 20.1158 34.0024 20.2324 34.0024 20.4198V25.0708C34.0024 25.2569 34.1177 25.3736 34.3025 25.3736H37.1567C37.3402 25.3736 37.4568 25.2556 37.4568 25.0708V24.9476C37.4568 24.772 37.3362 24.6528 37.1567 24.6528Z" fill="black"/>
<path d="M41.9702 23.7276L41.8365 23.6791C41.7959 23.6647 41.7592 23.6594 41.7238 23.6594C41.6399 23.6594 41.5272 23.6961 41.4499 23.8743C41.2861 24.4143 41.0148 24.7484 40.1604 24.7484C39.306 24.7484 38.863 24.3343 38.863 23.5808V21.902C38.863 21.1419 39.3112 20.7409 40.1604 20.7409C40.9139 20.7409 41.2494 20.9611 41.4381 21.5888C41.501 21.7749 41.6491 21.7932 41.7094 21.7932C41.7382 21.7932 41.7683 21.7893 41.8247 21.7762L41.9649 21.729C42.1274 21.6543 42.1916 21.5233 42.1431 21.3568C41.8719 20.4434 41.2428 20.0201 40.1604 20.0201C38.8866 20.0201 38.1265 20.7265 38.1265 21.9073V23.5729C38.1265 24.7589 38.8866 25.4679 40.1604 25.4679C41.2455 25.4679 41.8797 25.0341 42.1549 24.1037C42.1838 24.0198 42.1798 23.9399 42.1444 23.8717C42.1104 23.8036 42.0514 23.7511 41.9702 23.7262" fill="black"/>
<path d="M44.9016 20.0201C43.6252 20.0201 42.8638 20.7291 42.8638 21.9151V23.5742C42.8638 24.7602 43.6252 25.4692 44.9016 25.4692C46.178 25.4692 46.9289 24.7615 46.9289 23.5742V21.9151C46.9289 20.7304 46.1728 20.0201 44.9016 20.0201ZM43.599 21.9151C43.599 21.1472 44.0498 20.7422 44.9016 20.7422C45.7534 20.7422 46.1911 21.159 46.1911 21.9151V23.5742C46.1911 24.3317 45.7338 24.7484 44.9016 24.7484C44.0695 24.7484 43.599 24.3448 43.599 23.5742V21.9151Z" fill="black"/>
<path d="M49.9784 15.3796C49.9784 16.643 49.1764 17.3533 47.9445 17.3533H46.9682V18.7201C46.9682 18.9678 46.8883 19.0556 46.6353 19.0556H45.7377C45.4834 19.0556 45.3956 18.9678 45.3956 18.7201V13.7179C45.3956 13.4702 45.4834 13.3824 45.7377 13.3824H47.9301C49.1698 13.3824 49.9797 14.1111 49.9797 15.3796M48.3508 15.3718C48.3508 15.0206 48.128 14.7807 47.7545 14.7807H46.9682V15.9549H47.7545C48.128 15.9549 48.3508 15.7256 48.3508 15.3718Z" fill="black"/>
<path d="M53.2808 13.2618C54.8468 13.2618 55.7209 14.1176 55.7209 15.4989V16.9378C55.7209 18.3191 54.8468 19.1735 53.2808 19.1735C51.7148 19.1735 50.8342 18.3191 50.8342 16.9378V15.4989C50.8342 14.1176 51.7083 13.2618 53.2808 13.2618ZM53.2808 14.6602C52.7265 14.6602 52.4081 14.9249 52.4081 15.4281V17.0086C52.4081 17.5144 52.7265 17.7779 53.2808 17.7779C53.8352 17.7779 54.1471 17.5144 54.1471 17.0086V15.4281C54.1471 14.9249 53.8299 14.6602 53.2808 14.6602Z" fill="black"/>
<path d="M36.4896 13.2632C37.7136 13.2632 38.4776 13.7651 38.8091 14.6615C38.8891 14.8947 38.8327 15.014 38.5968 15.0939L37.7463 15.398C37.5 15.4687 37.403 15.4294 37.3191 15.1804C37.175 14.8213 36.9352 14.6615 36.4909 14.6615C35.8632 14.6615 35.6168 14.9327 35.6168 15.4936V16.9483C35.6168 17.5066 35.8632 17.7779 36.4909 17.7779C36.9352 17.7779 37.1894 17.6022 37.3191 17.2589C37.4122 17.0099 37.5078 16.9562 37.7463 17.0413L38.5968 17.3467C38.8327 17.424 38.8891 17.5459 38.8091 17.7779C38.4776 18.6729 37.7123 19.1762 36.4896 19.1762C34.9249 19.1762 34.0416 18.3204 34.0416 16.9404V15.5002C34.0416 14.1189 34.9249 13.2632 36.4896 13.2632Z" fill="black"/>
<path d="M42.037 13.2618C43.603 13.2618 44.4771 14.1176 44.4771 15.4989V16.9378C44.4771 18.3191 43.603 19.1735 42.037 19.1735C40.4709 19.1735 39.589 18.3191 39.589 16.9378V15.4989C39.589 14.1176 40.4631 13.2618 42.037 13.2618ZM42.037 14.6602C41.48 14.6602 41.1629 14.9249 41.1629 15.4281V17.0086C41.1629 17.5144 41.48 17.7779 42.037 17.7779C42.5939 17.7779 42.9032 17.5144 42.9032 17.0086V15.4281C42.9032 14.9249 42.5847 14.6602 42.037 14.6602Z" fill="black"/>
<path d="M48.132 5.14062V6.08157C48.132 6.41575 48.018 6.53238 47.6851 6.53238H44.9371V7.46284H47.1334C47.4663 7.46284 47.5803 7.57948 47.5803 7.90317V8.84412C47.5803 9.17961 47.4663 9.29493 47.1334 9.29493H44.9371V10.3001H47.7769C48.1006 10.3001 48.2159 10.4036 48.2159 10.7391V11.6919C48.2159 12.0169 48.1006 12.1296 47.7769 12.1296H43.3239C42.9897 12.1296 42.8744 12.0169 42.8744 11.6919V5.14193C42.8744 4.81955 42.9897 4.70291 43.3239 4.70291H47.6838C48.0167 4.70291 48.1307 4.81824 48.1307 5.14193" fill="black"/>
<path d="M52.5771 10.4547C53.2952 10.4547 53.6595 10.1101 53.6595 9.49152V5.14063C53.6595 4.81825 53.7644 4.70161 54.0946 4.70161H55.2714C55.6043 4.70161 55.7209 4.81694 55.7209 5.14063V9.39847C55.7209 11.1572 54.6371 12.2855 52.5758 12.2855C50.5144 12.2855 49.4437 11.1572 49.4437 9.39847V5.14063C49.4437 4.81825 49.5473 4.70161 49.8788 4.70161H51.0556C51.3898 4.70161 51.5051 4.81694 51.5051 5.14063V9.49152C51.5051 10.1101 51.8589 10.4547 52.5771 10.4547Z" fill="black"/>
<path d="M41.1 4.69113H40.0594C39.7161 4.69113 39.6217 4.74355 39.4763 5.02531L37.7582 8.40511L36.0402 5.01352C35.8947 4.75273 35.7899 4.69113 35.4243 4.69113H34.448C34.1151 4.69113 34.0011 4.79597 34.0011 5.13015V11.7023C34.0011 12.026 34.1151 12.1283 34.448 12.1283H35.5095C35.841 12.1283 35.9576 12.026 35.9576 11.7023V8.26358C36.3324 9.13769 36.8946 10.3722 36.8946 10.3722C37.01 10.6028 37.1135 10.6762 37.3939 10.6762H38.0911C38.3728 10.6762 38.4764 10.5819 38.5904 10.3722C38.5904 10.3722 39.1447 9.16127 39.5274 8.2911V11.7023C39.5274 12.026 39.6322 12.1283 39.9625 12.1283H41.0973C41.4315 12.1283 41.5455 12.026 41.5455 11.7023V5.13015C41.5455 4.79597 41.4315 4.69113 41.0973 4.69113" fill="black"/>
<path d="M29.9661 14.0573C29.7106 10.2804 28.0633 6.76429 25.3283 4.15376C22.6104 1.55895 19.0616 0.085943 15.3372 0.003381C14.8877 -0.00579255 14.4343 0.00338097 13.9835 0.0348332C5.73144 0.599662 -0.524777 7.80877 0.0347965 16.103C0.290339 19.8772 1.93761 23.3959 4.67257 26.0052C7.3905 28.6 10.938 30.073 14.6637 30.1555C15.1145 30.1647 15.5692 30.1529 16.0187 30.1241C20.0104 29.8515 23.6601 28.026 26.2981 24.9895C28.9334 21.9518 30.2361 18.07 29.9648 14.0573M18.0866 28.5174C17.1771 28.6694 16.4996 28.4978 16.0868 28.0102C15.7631 27.6236 15.6518 27.106 15.6203 26.6906C15.6282 24.063 16.2965 22.0356 17.1339 20.522C17.2387 20.3582 17.3816 20.2088 17.624 20.2153C17.7131 20.2153 17.814 20.2402 17.9228 20.2835C18.4418 20.5102 19.1298 20.7317 19.8558 20.7461C20.3288 20.7566 20.7665 20.678 21.161 20.5115C21.2108 20.4919 21.237 20.4368 21.2226 20.3857C21.2082 20.3346 21.1597 20.3018 21.1073 20.3084C21.1073 20.3084 20.9605 20.3267 20.7259 20.3215C20.1939 20.3097 19.2765 20.1826 18.3762 19.5522C18.2517 19.429 18.1875 19.2941 18.1888 19.1525C18.1915 19.0057 18.2596 18.8747 18.3225 18.7843C19.9881 16.7936 21.8359 15.9942 21.8542 15.985C21.9067 15.9641 21.9316 15.9051 21.9132 15.8514C21.8936 15.7989 21.8372 15.7675 21.7822 15.7858C20.8098 16.0859 19.9698 16.4804 19.2451 16.9391C19.2333 16.9417 19.2215 16.9456 19.211 16.9535C19.0708 17.0465 18.9542 17.095 18.8598 17.0924C18.8021 17.0924 18.7576 17.0688 18.7222 17.0347C18.3592 15.3953 19.8754 14.2434 19.9462 14.1923C19.9881 14.1595 20.0025 14.0992 19.9737 14.0533C19.9475 14.0062 19.8925 13.9852 19.8427 14.0048C18.1508 14.6784 17.8481 16.2052 17.852 17.2287C17.8455 17.2457 17.8402 17.2654 17.8429 17.2824C17.8429 17.2903 17.9018 17.9036 17.527 18.323C17.5179 18.3335 17.5113 18.3426 17.5074 18.357C16.6818 19.2272 16.0947 20.1957 15.6793 21.1668C15.885 18.6191 16.3398 15.5054 17.3134 12.6603C17.472 12.313 17.6725 12.2461 18.0591 12.119C19.6867 11.697 20.1388 10.878 20.1611 10.8374C20.1847 10.7954 20.1742 10.743 20.1401 10.7089C20.1048 10.6775 20.0497 10.6722 20.0091 10.6984C19.2674 11.1938 18.5296 11.3563 18.0329 11.4048C18.0159 11.4074 17.9962 11.4087 17.9818 11.4087C17.9359 11.4087 17.8796 11.3982 17.8612 11.3655C17.8455 11.3353 17.8494 11.2816 17.8638 11.2266C18.2413 10.3407 18.6776 9.4967 19.1835 8.72743C19.2123 8.68288 19.2058 8.62259 19.1651 8.58852C19.1258 8.55313 19.0655 8.55313 19.0262 8.58459C18.9804 8.6239 18.0892 9.38662 17.0972 11.3131C17.0605 11.3694 16.9609 11.4756 16.8888 11.4743C16.8272 11.4716 16.7761 11.3851 16.7473 11.3222C16.5036 10.5844 16.2218 9.29881 16.4 7.61612C16.4053 7.5637 16.3712 7.5139 16.3214 7.5008C16.2703 7.48769 16.2192 7.5139 16.1969 7.56239C16.1668 7.63054 15.5351 9.12976 16.1668 11.8976C16.2428 12.3484 16.3135 13.0836 16.0973 13.6471C16.0973 13.6471 16.0973 13.651 16.0973 13.6523C15.4578 15.4648 14.834 18.0111 14.5614 21.4249C14.2037 19.2023 13.6349 17.3584 13.0269 15.8828C14.0569 13.4715 13.6218 9.8453 13.6192 9.80729C13.61 9.75094 13.5602 9.71031 13.5039 9.71424C13.4475 9.71818 13.4043 9.76798 13.4056 9.82433C13.4685 11.9827 13.0885 13.5304 12.7648 14.4452C12.7058 14.5461 12.6481 14.6011 12.5944 14.6011C12.4869 14.5985 12.3559 14.4059 12.31 14.3115C12.3035 14.2997 12.2943 14.2905 12.2851 14.2801C11.2499 12.2763 10.3011 11.3026 10.284 11.2869C10.2473 11.2488 10.1871 11.2436 10.1451 11.2751C10.1019 11.3078 10.0901 11.3668 10.1163 11.4127C10.5435 12.1806 10.9288 12.9342 11.2761 13.689C11.3757 13.9328 11.373 14.0691 11.3455 14.1438C11.3272 14.1896 11.297 14.2224 11.2538 14.2447L11.2105 14.2565C10.9851 14.3023 10.706 14.339 10.3994 14.3325C10.0521 14.3246 9.72053 14.2617 9.41388 14.1503C9.36408 14.132 9.30904 14.1529 9.28283 14.2001C9.25793 14.2473 9.27104 14.3036 9.31297 14.3377C9.34574 14.3613 10.1137 14.9196 11.0441 14.9406C11.0703 14.9406 11.0965 14.9405 11.1227 14.9379L11.1267 14.9406C11.1267 14.9406 11.1398 14.9379 11.1607 14.9379C11.1647 14.9379 11.1673 14.9379 11.1699 14.9379C11.2708 14.934 11.5224 14.9288 11.6509 14.9327H11.6758C11.774 14.9366 11.8278 14.9982 11.8592 15.048C12.829 17.4842 13.4148 19.9742 13.7175 22.8862C13.2628 21.8784 12.7582 21.1026 12.3009 20.5168C11.0612 18.9389 9.904 18.4042 9.8542 18.3833C9.80965 18.361 9.7546 18.3767 9.72446 18.4173C9.69563 18.4606 9.70088 18.5169 9.73626 18.5536C10.6261 19.4775 11.3246 20.3818 11.8684 21.2375C11.9772 21.4446 12.0768 21.7539 11.8645 21.9714C11.8645 21.9714 11.8645 21.9723 11.8645 21.974C11.4556 22.3816 10.8895 22.5782 10.1713 22.5612C9.42961 22.5467 8.79665 22.2977 8.79009 22.2964C8.74161 22.2755 8.68657 22.2964 8.65905 22.3436C8.63284 22.3882 8.64463 22.4471 8.68788 22.4786C9.18193 22.8613 9.73626 23.0605 10.3351 23.0736C11.0625 23.0893 11.7151 22.8324 12.1685 22.5874C12.2013 22.5743 12.2878 22.5454 12.3874 22.548C12.5145 22.552 12.6128 22.6031 12.6875 22.704C13.5327 24.4575 13.7489 25.882 13.7961 26.6644C13.7961 27.0877 13.7254 27.6092 13.4213 27.984C13.0203 28.4755 12.293 28.5974 11.2787 28.347C5.85069 26.7823 1.7109 21.8862 1.31251 16.0125C0.797494 8.42602 6.52166 1.83416 14.0687 1.31913C14.4815 1.2903 14.8969 1.28244 15.3084 1.2903C22.3352 1.44363 28.2114 7.0893 28.6884 14.1425C29.151 20.9885 24.5368 27.0234 18.0866 28.5174Z" fill="black"/>
<path d="M17.0108 3.28756C16.8155 3.25611 16.6268 3.23645 16.4499 3.23383C15.986 3.22335 15.6963 3.31115 15.6714 3.46579C15.6714 3.47758 15.6688 3.48676 15.6714 3.492L15.5011 6.82986V6.83249C15.4972 6.86525 15.505 6.8967 15.5299 6.92815C15.6256 7.06051 15.9637 7.19418 16.3686 7.25971C16.5062 7.2833 16.6386 7.29509 16.7644 7.29903C16.9229 7.30296 17.2951 7.29116 17.3253 7.12735C17.3659 6.98844 18.2111 3.98737 18.2282 3.88384C18.2662 3.63222 17.6306 3.38978 17.0121 3.29018M17.9071 3.88777C17.8993 3.93364 17.7603 3.99655 17.4052 3.98868C17.2493 3.98475 17.0776 3.96902 16.9059 3.94019C16.3044 3.84191 15.9558 3.66106 15.9702 3.57194C15.9768 3.52738 16.117 3.46448 16.4748 3.47103C16.6281 3.47496 16.7985 3.49069 16.9727 3.52214C17.2388 3.56539 17.4838 3.6296 17.6634 3.70561C17.8429 3.78162 17.915 3.85108 17.9084 3.88777" fill="black"/>
<path d="M14.2443 9.00401C14.2312 8.84019 13.9992 5.75132 13.9769 5.6491C13.9429 5.47481 13.6061 5.44205 13.4069 5.4368C13.1788 5.43287 12.9089 5.45777 12.6311 5.51281C12.0165 5.63338 11.3887 5.89417 11.4359 6.14579C11.4398 6.15496 11.4425 6.16414 11.4451 6.16807L12.4293 9.36177C12.4293 9.36177 12.4293 9.36177 12.4319 9.3644C12.462 9.4902 12.7018 9.51379 12.8447 9.51772C13.0072 9.52166 13.1946 9.50462 13.3911 9.46399C13.8315 9.38012 14.2783 9.1901 14.2443 9.01318C14.2443 9.00925 14.2443 9.00925 14.2443 9.00663M13.6834 5.76443C13.7004 5.85223 13.3571 6.04488 12.7608 6.16151C12.5171 6.21 12.2786 6.23228 12.0912 6.22835C11.8395 6.22311 11.7622 6.17069 11.757 6.14317C11.7517 6.11434 11.7963 6.04357 11.9955 5.95052C12.1724 5.86927 12.4162 5.79588 12.6796 5.74346C12.9233 5.69759 13.1605 5.67269 13.3492 5.67663C13.6008 5.68187 13.6781 5.73429 13.6834 5.76443Z" fill="black"/>
<path d="M10.5278 10.249C10.4636 10.1337 8.95129 7.39732 8.88839 7.31083C8.85563 7.26758 8.80059 7.244 8.72196 7.24269C8.48476 7.23744 8.04706 7.43664 7.60936 7.75116C7.10221 8.1181 6.63961 8.62265 6.78638 8.82971C6.79294 8.83757 6.79818 8.84281 6.80211 8.84675L9.02599 11.3328C9.05089 11.3669 9.09282 11.3826 9.14917 11.3839C9.32085 11.3878 9.63143 11.2463 9.94201 11.0222C10.2985 10.764 10.6208 10.4128 10.5252 10.2477L10.5278 10.249ZM7.99595 8.28978C7.64606 8.54009 7.29092 8.71439 7.12973 8.71045C7.11007 8.71045 7.08386 8.70652 7.07469 8.6908C7.02227 8.62003 7.25422 8.30026 7.74827 7.94381C8.09555 7.69088 8.45331 7.51789 8.61319 7.5192C8.63285 7.52182 8.65905 7.52444 8.66954 7.53886C8.72065 7.60963 8.49 7.92939 7.99595 8.28847" fill="black"/>
<path d="M5.17064 13.8162C5.1785 13.8201 5.18767 13.8227 5.19553 13.8254L8.34985 14.879C8.36034 14.8829 8.36951 14.8856 8.37737 14.8869C8.55036 14.9105 8.819 14.5357 8.9933 14.1556C9.1807 13.7441 9.28422 13.2658 9.11648 13.1898C8.96316 13.0967 6.34482 11.4953 6.24916 11.4533C6.23736 11.4494 6.22164 11.4442 6.20853 11.4415C5.97134 11.4114 5.59916 11.9369 5.35541 12.4716C5.09332 13.0443 4.93868 13.7127 5.16933 13.8162M5.33838 13.2487C5.37507 13.0574 5.45763 12.8176 5.56902 12.5686C5.81932 12.0221 6.07486 11.7456 6.16398 11.7587H6.17053C6.25178 11.7967 6.20722 12.1912 5.9543 12.7442C5.70531 13.2907 5.44977 13.5672 5.35279 13.5541C5.3292 13.5436 5.29775 13.4663 5.33969 13.2474" fill="black"/>
<path d="M9.58172 17.3336C9.42053 17.2445 6.73536 15.7702 6.6397 15.7322C6.62397 15.7269 6.60693 15.723 6.5899 15.723C6.3527 15.7191 6.01067 16.2564 5.79313 16.7897C5.55855 17.3755 5.43668 18.0465 5.66994 18.1435C5.67912 18.1474 5.68829 18.1487 5.69222 18.15L8.89241 19.0569C8.90551 19.0608 8.91599 19.0648 8.9291 19.0648C9.10208 19.0687 9.34845 18.6847 9.50309 18.3034C9.67083 17.8853 9.7547 17.4044 9.58172 17.3336ZM6.4025 17.0374C6.19937 17.5407 5.95169 17.8788 5.84817 17.8748C5.84424 17.8748 5.84161 17.8748 5.83899 17.8722C5.81147 17.8604 5.77871 17.787 5.81016 17.5669C5.83899 17.3729 5.91107 17.1292 6.01067 16.8775C6.21379 16.373 6.46016 16.0375 6.565 16.0388C6.56893 16.0388 6.57155 16.0414 6.57548 16.0414C6.65673 16.0742 6.63183 16.4713 6.40381 17.0361" fill="black"/>
<path d="M8.50711 21.2075C8.35771 21.1249 5.65944 19.644 5.56246 19.6047C5.54543 19.6008 5.5297 19.5955 5.51267 19.5942C5.27416 19.589 4.93081 20.1289 4.7159 20.6649C4.48132 21.2481 4.35813 21.9217 4.5914 22.0173C4.60057 22.02 4.60975 22.0226 4.61499 22.0239L7.81517 22.9308C7.82697 22.9347 7.83876 22.936 7.85056 22.9373C8.02354 22.9413 8.27122 22.5573 8.42323 22.1759C8.59229 21.7566 8.67747 21.2782 8.50448 21.2061M5.32658 20.9126C5.12476 21.4145 4.87577 21.7513 4.77225 21.7487C4.76831 21.7487 4.76438 21.7487 4.76045 21.7461C4.6792 21.7133 4.70672 21.3188 4.93343 20.7527C5.13525 20.2482 5.38293 19.9127 5.48646 19.9166C5.49039 19.9166 5.49432 19.9166 5.49694 19.9166C5.50611 19.9205 5.51529 19.9297 5.52184 19.9454C5.57033 20.0608 5.51791 20.4277 5.32658 20.9113" fill="black"/>
<path d="M20.241 8.41952C20.3118 8.30419 21.9643 5.65303 22.0102 5.55737C22.1177 5.32803 21.5751 4.91522 21.009 4.64394C20.6119 4.45523 20.2188 4.33728 19.9593 4.33073C19.8047 4.3268 19.709 4.36349 19.6723 4.4395C19.6684 4.44868 19.6657 4.45654 19.6657 4.46178L18.5715 7.61879C18.5715 7.61879 18.5715 7.61879 18.5689 7.61879C18.5584 7.64763 18.5597 7.68039 18.5728 7.71839C18.6265 7.87303 18.9135 8.09713 19.2844 8.27405C19.5648 8.40772 19.844 8.49159 20.0301 8.49552C20.1441 8.49552 20.2161 8.46931 20.241 8.41558M20.7272 5.24284C20.1781 4.98074 19.8938 4.70816 19.9305 4.6269C19.9409 4.60594 19.9894 4.59152 20.0589 4.59283C20.2489 4.59676 20.5752 4.70029 20.9081 4.86018C21.4559 5.12097 21.7415 5.39355 21.7035 5.47349C21.6931 5.49708 21.6446 5.50888 21.5751 5.50757C21.3851 5.50363 21.0588 5.40273 20.7259 5.24284" fill="black"/>
<path d="M21.068 11.0458C21.106 11.0458 21.1362 11.0353 21.1558 11.017C21.2672 10.9423 23.8397 9.18094 23.9196 9.11017C24.111 8.94111 23.7768 8.34745 23.3666 7.87174C22.9774 7.41961 22.5646 7.11164 22.3418 7.10771C22.2933 7.10771 22.254 7.1182 22.2239 7.14441C22.2173 7.14965 22.2121 7.15751 22.2081 7.16275L19.9463 9.6134C19.924 9.63568 19.9109 9.66582 19.9096 9.70645C19.8978 9.87026 20.0694 10.19 20.3368 10.5006C20.6146 10.8217 20.9082 11.0392 21.0693 11.0445M22.3864 7.42092C22.3929 7.41437 22.4047 7.41175 22.4178 7.41175C22.5371 7.41175 22.8477 7.6306 23.1897 8.02638C23.5881 8.48899 23.7388 8.85331 23.6719 8.91097C23.6641 8.91621 23.6549 8.92014 23.6392 8.92014C23.5199 8.91621 23.2107 8.70129 22.8686 8.30552C22.4716 7.84422 22.3182 7.47859 22.3864 7.42092Z" fill="black"/>
<path d="M23.8187 12.0916C23.5317 11.5136 23.1739 11.0917 22.9616 11.0864C22.9367 11.0864 22.9157 11.0903 22.8921 11.1021C22.8882 11.1061 22.8777 11.11 22.8725 11.1152L20.0733 12.9172C20.0733 12.9172 20.0733 12.9172 20.0707 12.9198C20.0432 12.9342 20.0248 12.9631 20.0117 12.9971C19.9593 13.1531 20.0471 13.5056 20.2293 13.8765C20.4363 14.2945 20.6879 14.5894 20.8439 14.5933C20.8622 14.5933 20.8806 14.5894 20.8963 14.5815C21.0273 14.533 23.9497 13.4794 24.0441 13.4309C24.2695 13.3169 24.0952 12.6551 23.8173 12.0916M22.9813 11.4075C22.9813 11.4075 22.9904 11.4049 22.9957 11.4049C23.1031 11.4075 23.3665 11.7115 23.6064 12.1977C23.7269 12.4402 23.816 12.6787 23.8593 12.8687C23.9012 13.0587 23.8881 13.1596 23.8553 13.1754C23.8514 13.178 23.8462 13.1793 23.8396 13.1793C23.7322 13.1793 23.4688 12.8726 23.2289 12.3851C22.959 11.8386 22.9039 11.4481 22.9813 11.4075Z" fill="black"/>
<path d="M26.1304 15.1542C26.0413 14.5632 25.8159 13.9315 25.5761 13.9276C25.5669 13.9276 25.5603 13.9276 25.5512 13.9276C25.542 13.9276 25.5328 13.9315 25.5276 13.9328L22.3143 14.7886C22.3143 14.7886 22.3143 14.7912 22.3117 14.7912C22.2815 14.7951 22.254 14.8161 22.2304 14.8476C22.1334 14.9799 22.1098 15.3429 22.1714 15.7518C22.237 16.1843 22.3968 16.6246 22.5751 16.6272H22.5908C22.7231 16.6233 25.8342 16.5158 25.9404 16.4988C26.1907 16.4608 26.2247 15.7767 26.1304 15.1542ZM25.8657 16.1738C25.8565 16.1882 25.846 16.1961 25.8316 16.1987C25.7464 16.1961 25.5708 15.8593 25.4804 15.2538C25.3887 14.651 25.4542 14.2604 25.542 14.246H25.5459C25.6337 14.2487 25.8067 14.5855 25.8984 15.1909C25.9757 15.7046 25.9417 16.0729 25.8657 16.1751" fill="black"/>
<path d="M24.9496 18.4069C24.9418 18.4069 24.9339 18.4069 24.9247 18.4095C24.9143 18.4095 24.9064 18.4134 24.9012 18.4134L21.6879 19.2718H21.6852C21.6564 19.2771 21.6276 19.2954 21.6027 19.3282C21.507 19.4592 21.4821 19.8236 21.5437 20.2324C21.6092 20.6649 21.7691 21.1065 21.9473 21.1092C21.9526 21.1092 21.9578 21.1092 21.9618 21.1092C22.0954 21.1052 25.2078 20.9978 25.3113 20.9807C25.5616 20.944 25.5957 20.2586 25.504 19.6361C25.4136 19.0451 25.1882 18.4134 24.9483 18.4069M25.2393 20.6557C25.2301 20.6688 25.2196 20.6754 25.2052 20.678C25.12 20.6754 24.9444 20.3399 24.8527 19.7331C24.7609 19.1303 24.8278 18.7398 24.9143 18.7267H24.9182C25.0047 18.7267 25.179 19.0648 25.2694 19.6702C25.3467 20.1839 25.3126 20.5522 25.2379 20.6557" fill="black"/>
</svg>
